<svg fill="none" viewBox="0 0 56 56" xmlns="http://www.w3.org/2000/svg"><rect fill="#ee9908" height="56" rx="6" width="56"/><path d="m37.2308 14.6667h2.0513c.544 0 1.0658.2161 1.4504.6008.3847.3847.6008.9064.6008 1.4504v2.0513m-26.6666 0v-2.0513c0-.544.2161-1.0657.6008-1.4504s.9064-.6008 1.4504-.6008h2.0513m6.154 0h6.1538m10.2563 10.2565v6.1538m-26.6666-6.1538v6.1538m22.5641 10.2563h2.0513c.544 0 1.0658-.2161 1.4504-.6008.3847-.3846.6008-.9064.6008-1.4504v-2.0513m-26.6666 0v2.0513c0 .544.2161 1.0658.6008 1.4504.3847.3847.9064.6008 1.4504.6008h2.0513m6.154 0h6.1538m-7.1797-19.4871h8.2051c1.1329 0 2.0513.9184 2.0513 2.0513v8.2051c0 1.1329-.9184 2.0513-2.0513 2.0513h-8.2051c-1.1329 0-2.0513-.9184-2.0513-2.0513v-8.2051c0-1.1329.9184-2.0513 2.0513-2.0513z" stroke="#fff" stroke-linecap="round" stroke-linejoin="round" stroke-width="1.5"/></svg>