<svg fill="none" viewBox="0 0 56 56" xmlns="http://www.w3.org/2000/svg"><rect fill="#524e5f" height="56" rx="6" width="56"/><path d="m31.0767 25.3896v-2.0513c0-.4041-.0796-.8042-.2342-1.1775s-.3813-.7125-.667-.9982-.6249-.5124-.9982-.667-.7735-.2342-1.1775-.2342c-.4041 0-.8042.0796-1.1775.2342s-.7125.3813-.9982.667c-.2858.2857-.5124.6249-.667.9982-.1547.3733-.2342.7734-.2342 1.1775v2.0513m3.8156 16.2668c-.4753.1834-1.0017.1834-1.477 0-3.7114-1.4553-6.8982-3.9951-9.1448-7.2882-2.2467-3.2932-3.4489-7.1869-3.45-11.1734v-6.0102c0-.5441.2161-1.0658.6008-1.4505s.9064-.6008 1.4505-.6008h22.5641c.544 0 1.0657.2161 1.4504.6008s.6008.9064.6008 1.4505v5.9897c.0031 3.99-1.1973 7.8882-3.4442 11.1854s-5.436 5.8401-9.1506 7.2967zm-3.8158-16.2666h6.1539c1.1328 0 2.0512.9184 2.0512 2.0513v4.1026c0 1.1328-.9184 2.0512-2.0512 2.0512h-6.1539c-1.1329 0-2.0513-.9184-2.0513-2.0512v-4.1026c0-1.1329.9184-2.0513 2.0513-2.0513z" stroke="#fff" stroke-linecap="round" stroke-linejoin="round" stroke-width="1.5"/></svg>