<svg fill="none" viewBox="0 0 56 56" xmlns="http://www.w3.org/2000/svg"><rect fill="#6c23bc" height="56" rx="6" width="56"/><path d="m14.6667 36.2051h26.6666m-19.8151.0001 10.6872-10.0103c.1843-.1535.4166-.2376.6564-.2376.2399 0 .4721.0841.6564.2376l7.8154 5.6m-2.0515 9.5384h-22.5641c-1.1329 0-2.0513-.9184-2.0513-2.0513v-22.5641c0-1.1329.9184-2.0513 2.0513-2.0513h22.5641c1.1329 0 2.0512.9184 2.0512 2.0513v22.5641c0 1.1329-.9183 2.0513-2.0512 2.0513zm-13.3333-18.4615c0 1.6994-1.3776 3.0769-3.0769 3.0769-1.6994 0-3.077-1.3775-3.077-3.0769 0-1.6993 1.3776-3.0769 3.077-3.0769 1.6993 0 3.0769 1.3776 3.0769 3.0769z" stroke="#fff" stroke-linecap="round" stroke-linejoin="round" stroke-width="1.5"/></svg>