<svg fill="none" viewBox="0 0 56 56" xmlns="http://www.w3.org/2000/svg"><rect fill="#fbbf24" height="56" rx="6" width="56"/><path d="m21.3334 34.6667-5.7143 5.7143m19.0476-19.0476 5.7143-5.7143m-19.0476 25.7143h-6.6667v-6.6667m20-20h6.6667v6.6667m-6.6667 13.3333 5.7143 5.7143m-19.0476-19.0476-5.7143-5.7143m19.0476 25.7143h6.6667v-6.6667m-20-20h-6.6667v6.6667m11.4286 9.8412h3.8095c.7013 0 1.2698-.5685 1.2698-1.2698v-3.8095c0-.7014-.5685-1.2699-1.2698-1.2699h-3.8095c-.7014 0-1.2699.5685-1.2699 1.2699v3.8095c0 .7013.5685 1.2698 1.2699 1.2698z" stroke="#fff" stroke-linecap="round" stroke-linejoin="round" stroke-width="1.5"/></svg>