<svg fill="none" viewBox="0 0 56 56" xmlns="http://www.w3.org/2000/svg"><rect fill="#1aa1e5" height="56" rx="6" width="56"/><path d="m23.8975 35.1795h-7.1795c-.5441 0-1.0658-.2161-1.4505-.6008s-.6008-.9065-.6008-1.4505v-16.4103c0-.544.2161-1.0657.6008-1.4504s.9064-.6008 1.4505-.6008h16.4102c.5441 0 1.0658.2161 1.4505.6008s.6008.9064.6008 1.4504v4.1026m-8.7998 6.8103c-.479-.0996-.9672-.1477-1.4564-.1436-1.1149-.0016-2.2147.2572-3.2119.7558-.9971.4986-1.8641 1.2232-2.5317 2.116m11.8975 1.7436v-2.0513c0-1.0881.4322-2.1316 1.2016-2.901.7694-.7693 1.8129-1.2016 2.9009-1.2016 1.0881 0 2.1316.4323 2.901 1.2016.7694.7694 1.2016 1.8129 1.2016 2.901v2.0513m-11.2824-10.7693c0 1.6993-1.3776 3.0769-3.0769 3.0769-1.6994 0-3.077-1.3776-3.077-3.0769 0-1.6994 1.3776-3.077 3.077-3.077 1.6993 0 3.0769 1.3776 3.0769 3.077zm2.0515 10.7692h10.2564c.5664 0 1.0256.4592 1.0256 1.0257v7.1795c0 .5664-.4592 1.0256-1.0256 1.0256h-10.2564c-.5665 0-1.0257-.4592-1.0257-1.0256v-7.1795c0-.5665.4592-1.0257 1.0257-1.0257z" stroke="#fff" stroke-linecap="round" stroke-linejoin="round" stroke-width="1.5"/></svg>