<svg fill="none" viewBox="0 0 56 56" xmlns="http://www.w3.org/2000/svg"><clipPath id="a"><path d="m12 12h32v32h-32z"/></clipPath><rect fill="#ea2889" height="56" rx="6" width="56"/><g clip-path="url(#a)"><path d="m13.3333 17.141h11.8462m5.641 0h11.8462m-11.8462 17.4871h11.8462m-29.3334 0h11.8462m-10.718-21.2948h9.5898c.623 0 1.1282.5051 1.1282 1.1282v9.5897c0 .6231-.5052 1.1282-1.1282 1.1282h-9.5898c-.6231 0-1.1282-.5051-1.1282-1.1282v-9.5897c0-.6231.5051-1.1282 1.1282-1.1282zm17.4872 0h9.5898c.6231 0 1.1282.5051 1.1282 1.1282v9.5897c0 .6231-.5051 1.1282-1.1282 1.1282h-9.5898c-.623 0-1.1282-.5051-1.1282-1.1282v-9.5897c0-.6231.5052-1.1282 1.1282-1.1282zm-17.4872 17.4872h9.5898c.623 0 1.1282.5051 1.1282 1.1282v9.5897c0 .6231-.5052 1.1282-1.1282 1.1282h-9.5898c-.6231 0-1.1282-.5051-1.1282-1.1282v-9.5897c0-.6231.5051-1.1282 1.1282-1.1282zm17.4872 0h9.5898c.6231 0 1.1282.5051 1.1282 1.1282v9.5897c0 .6231-.5051 1.1282-1.1282 1.1282h-9.5898c-.623 0-1.1282-.5051-1.1282-1.1282v-9.5897c0-.6231.5052-1.1282 1.1282-1.1282z" stroke="#fff" stroke-linecap="round" stroke-linejoin="round" stroke-width="1.5"/></g></svg>