<svg fill="none" viewBox="0 0 56 56" xmlns="http://www.w3.org/2000/svg"><rect fill="#25212b" height="56" rx="6" width="56"/><path d="m14.6667 40.6153h15.4418c.6369 0 1.265-.1483 1.8347-.433l1.185-.5926 1.1851.5926c.5696.2847 1.1977.433 1.8346.433h5.1855m-6.1538-19.4871-13.3334 13.3333-6.1538 1.0257 1.0256-6.1539 13.3334-13.3333zm-4.1028 15.3845c0-1.1329.9184-2.0513 2.0513-2.0513s2.0513.9184 2.0513 2.0513v.1245c0 .577-.2291 1.1303-.6373 1.5385l-1.414 1.4139-1.414-1.4139c-.408-.4082-.6373-.9615-.6373-1.5385z" stroke="#fff" stroke-linecap="round" stroke-linejoin="round" stroke-width="1.5"/></svg>