<svg fill="none" viewBox="0 0 56 56" xmlns="http://www.w3.org/2000/svg"><rect fill="#5351de" height="56" rx="6" width="56"/><path d="m30.0513 23.4053 4.6154 9.1897m-3.0735 4.9703-6.7695.0304m1.1249-14.1904-4.6154 9.1897m6.667-8.6976c-2.549 0-4.6154-2.0664-4.6154-4.6154s2.0664-4.6153 4.6154-4.6153 4.6154 2.0663 4.6154 4.6153-2.0664 4.6154-4.6154 4.6154zm-8.7181 17.4361c-2.549 0-4.6154-2.0664-4.6154-4.6154s2.0664-4.6154 4.6154-4.6154 4.6154 2.0664 4.6154 4.6154-2.0664 4.6154-4.6154 4.6154zm17.4358 0c-2.549 0-4.6153-2.0664-4.6153-4.6154s2.0663-4.6154 4.6153-4.6154 4.6154 2.0664 4.6154 4.6154-2.0664 4.6154-4.6154 4.6154z" stroke="#fff" stroke-linecap="round" stroke-linejoin="round" stroke-width="1.5"/></svg>