<svg fill="none" viewBox="0 0 56 56" xmlns="http://www.w3.org/2000/svg"><rect fill="#06605b" height="56" rx="6" width="56"/><path d="m17.7436 40.6153h-1.0256c-.5441 0-1.0658-.2161-1.4505-.6008s-.6008-.9064-.6008-1.4505v-20.5128c0-.544.2161-1.0658.6008-1.4505.3847-.3846.9064-.6008 1.4505-.6008h22.5641c.544 0 1.0658.2162 1.4504.6008.3847.3847.6009.9065.6009 1.4505v5.1282m-26.6667-1.0257h26.6667m-12.5287 10.7324v-2.3407c0-.9311.3996-1.8242 1.111-2.4826.7113-.6584 1.6761-1.0283 2.6821-1.0283s1.9708.3699 2.6821 1.0283c.7114.6584 1.111 1.5515 1.111 2.4826v2.3407m-8.8506 0h10.1149v7.0219h-10.1149z" stroke="#fff" stroke-linecap="round" stroke-linejoin="round" stroke-width="1.5"/></svg>